<?xml version="1.0" encoding="UTF-8" standalone="no"?>
<!-- Created with Inkscape (http://www.inkscape.org/) -->

<svg
   xmlns:dc="http://purl.org/dc/elements/1.1/"
   xmlns:cc="http://creativecommons.org/ns#"
   xmlns:rdf="http://www.w3.org/1999/02/22-rdf-syntax-ns#"
   xmlns:svg="http://www.w3.org/2000/svg"
   xmlns="http://www.w3.org/2000/svg"
   xmlns:sodipodi="http://sodipodi.sourceforge.net/DTD/sodipodi-0.dtd"
   xmlns:inkscape="http://www.inkscape.org/namespaces/inkscape"
   id="svg2"
   version="1.1"
   inkscape:version="0.47 r22583"
   width="336.61465"
   height="433.1134"
   xml:space="preserve"
   sodipodi:docname="logo_plot_schmal.eps"><metadata
     id="metadata8"><rdf:RDF><cc:Work
         rdf:about=""><dc:format>image/svg+xml</dc:format><dc:type
           rdf:resource="http://purl.org/dc/dcmitype/StillImage" /><dc:title></dc:title></cc:Work></rdf:RDF></metadata><defs
     id="defs6"><inkscape:perspective
       sodipodi:type="inkscape:persp3d"
       inkscape:vp_x="0 : 0.5 : 1"
       inkscape:vp_y="0 : 1000 : 0"
       inkscape:vp_z="1 : 0.5 : 1"
       inkscape:persp3d-origin="0.5 : 0.33333333 : 1"
       id="perspective10" /></defs><sodipodi:namedview
     pagecolor="#ffffff"
     bordercolor="#666666"
     borderopacity="1"
     objecttolerance="10"
     gridtolerance="10"
     guidetolerance="10"
     inkscape:pageopacity="0"
     inkscape:pageshadow="2"
     inkscape:window-width="1920"
     inkscape:window-height="1126"
     id="namedview4"
     showgrid="false"
     inkscape:zoom="1.6846919"
     inkscape:cx="85.603397"
     inkscape:cy="207.06723"
     inkscape:window-x="-2"
     inkscape:window-y="-3"
     inkscape:window-maximized="1"
     inkscape:current-layer="g12" /><g
     id="g12"
     inkscape:groupmode="layer"
     inkscape:label="ink_ext_XXXXXX"
     transform="matrix(1.25,0,0,-1.25,-253.18676,730.88219)"><g
       id="g14"
       transform="matrix(0.1,0,0,0.1,196.33613,269.54622)"><path
         d="m 1014.89,2338.61 c 0,-82.52 22.9,-176.85 79.73,-290.25 9.93,-19.89 29.97,-31.39 50.77,-31.39 8.56,0 17.2,1.92 25.37,5.98 28.04,14.01 39.38,48.07 25.35,76.11 -51.12,102.35 -67.68,178.27 -67.74,239.55 0.06,83.44 30.52,146.07 67.68,220.32 36.55,73.13 79.79,157.83 79.69,271.01 0,82.58 -22.86,176.91 -79.63,290.26 -14.03,28.04 -48.1,39.4 -76.1,25.39 -28.04,-14.03 -39.4,-48.06 -25.39,-76.15 51.1,-102.26 67.65,-178.17 67.68,-239.5 -0.03,-83.37 -30.52,-146.08 -67.68,-220.25 -36.52,-73.23 -79.76,-157.92 -79.73,-271.08 M 753.848,1340.78 c 3.812,0 7.722,0.79 11.441,2.38 14.731,6.35 21.508,23.4 15.141,38.1 l 0,0.04 c -1.2,2.72 -2.145,7.04 -2.145,12.04 -0.121,9 3.215,19.6 7.695,25.74 4.883,6.38 7.915,7.74 12.243,7.89 1.757,-0.04 4.343,-0.39 8.285,-1.92 14.855,-5.94 31.734,1.32 37.691,16.18 5.899,14.86 -1.324,31.72 -16.176,37.65 -9.687,3.89 -19.746,6.09 -29.8,6.05 -26.282,0.16 -47.696,-14.91 -59.645,-32.41 -12.289,-17.7 -18.133,-38.35 -18.273,-59.18 0,-11.73 2,-23.65 6.918,-35.06 4.703,-10.94 15.394,-17.5 26.625,-17.5 m 565.962,997.83 c 0,-82.52 22.96,-176.88 79.76,-290.25 9.9,-19.89 29.99,-31.39 50.8,-31.39 8.49,0 17.13,1.92 25.27,5.96 28.04,14.01 39.39,48.13 25.42,76.13 l -0.06,0 c -51.16,102.4 -67.68,178.32 -67.68,239.55 0.06,83.39 30.53,146.07 67.68,220.3 36.55,73.2 79.66,157.91 79.66,271.01 0,82.63 -22.88,176.93 -79.66,290.35 -13.97,28 -48.07,39.31 -76.08,25.34 -28.1,-14.05 -39.39,-48.13 -25.35,-76.11 51.05,-102.32 67.62,-178.23 67.62,-239.58 0,-83.3 -30.52,-146.01 -67.68,-220.23 -36.52,-73.21 -79.7,-157.92 -79.7,-271.08 m 1287,-2389.1764 c -66.97,13.0859 -162.01,24.7578 -282.46,34.668 -17.63,1.4531 -35.79,2.832 -54.25,4.2187 0.17,3.34767 0.51,6.64845 0.51,10.05861 l 0,378.39109 c 89.35,21.335 167.69,82.996 225.95,168.433 73.14,107.024 117.26,252.363 117.31,412.442 -0.05,160.055 -44.17,305.425 -117.31,412.455 -58.26,85.44 -136.6,147.1 -225.95,168.45 l 0,320.58 -1582.274,0 0,-180.7 c -11.848,0.95 -23.723,1.6 -35.77,1.6 -49.968,0 -99.089,-8.35 -146.304,-24.9 -15.676,4.75 -38.789,15.04 -60.508,37.33 -11.242,11.57 -26.379,17.63 -41.695,17.63 -9.821,0 -19.758,-2.52 -28.778,-7.64 -23.011,-13.14 -34.25,-40.17 -27.277,-65.75 4.598,-16.95 6.523,-32.73 6.996,-46.56 -30.32,0.59 -59.938,7.28 -88.152,19.91 -7.645,3.46 -15.77,5.08 -23.762,5.08 -17.266,0 -34.148,-7.68 -45.43,-21.85 -16.527,-20.7 -16.968,-50 -1.101,-71.19 21.379,-28.44 35.05,-56.62 43.851,-81.08 -13.25,-3.74 -28.98,-6.48 -46.789,-6.48 l -3.875,0 c -26.07,0 -49.051,-17.44 -55.98,-42.67 -7.067,-25.54 4.066,-52.63 27.023,-65.81 18.735,-10.78 35.641,-23.84 50.559,-39.06 -8.985,-76.98 2.332,-154.69 33.226,-226.4 C 303.531,923.699 425.863,827.727 568.676,800.312 548.492,471.465 435.27,237.355 364.781,92.4023 339.355,40.1641 319.672,-0.488281 308.855,-34.9883 271.371,-39.9297 238.281,-45.1055 210.367,-50.5664 151.324,-62.0508 62.1328,-79.4531 62.1328,-148.926 c 0,-69.551 89.1912,-86.926 148.2342,-98.445 66.953,-13.059 162,-24.691 282.445,-34.649 244.821,-20.199 570.048,-31.292 915.748,-31.292 345.67,0 670.95,11.093 915.79,31.292 120.45,9.958 215.49,21.59 282.46,34.649 59.04,11.519 148.24,28.894 148.24,98.445 0,69.4729 -89.2,86.8752 -148.24,98.3596 M 2270.61,1095.16 c 20.57,-36.28 33.69,-84.51 33.63,-137.515 0.06,-52.997 -13.06,-101.207 -33.63,-137.516 l 0,275.031 z m 0,-365.551 c 14.53,12.305 27.67,26.836 38.82,43.243 33.27,48.82 52.71,113.664 52.77,184.793 -0.06,71.145 -19.5,135.985 -52.77,184.805 -11.15,16.41 -24.29,30.91 -38.82,43.25 l 0,292.96 c 67.21,-20.12 128.71,-69.32 178.06,-141.27 65.58,-95.69 107.28,-230.41 107.2,-379.745 0.08,-149.305 -41.62,-284.051 -107.16,-379.707 -49.39,-71.942 -110.89,-121.168 -178.1,-141.297 l 0,292.968 z M 297.984,1083.61 c -31.246,72.5 -38.382,149.23 -25.187,221.52 -17.074,21.45 -43.949,48.8 -83.027,71.28 53.265,-0.88 93.652,16.5 116.414,29.64 0.91,1.87 1.625,3.79 2.586,5.69 -6.598,33.02 -23.344,88.85 -65.7,145.24 73.766,-33.03 138.926,-25.68 165.797,-20.32 4.528,23.12 8.832,65.22 -4.769,115.29 41.765,-42.97 88.445,-54.42 106.14,-57.38 193.324,76.79 413.789,-13.38 496.642,-205.69 84.3,-195.74 -6.06,-422.794 -201.786,-507.103 -195.778,-84.289 -422.813,6.043 -507.11,201.833 M 771.152,-177.988 c -452.597,0 -413.375,-13.953 -413.375,91.406 0,98.3672 237.711,380.574 269.157,879.609 8.527,-0.5 17.058,-0.937 25.671,-0.937 60.493,0 119.528,12.219 175.508,36.308 6.028,2.579 11.899,5.364 17.762,8.196 105.309,25.996 229.635,101.746 261.075,143.054 57.85,76.012 70.27,28.322 70.27,1.614 0,-51.543 112.78,23.268 129.19,-36.157 13.08,-47.554 -20.73,-136.421 -161.23,-124 C 985.496,835.168 792.852,623.547 712.145,512.246 683.32,475.242 654.164,427.629 653.84,427.188 c -8.367,-13.653 -4.078,-31.543 9.515,-39.903 4.766,-2.898 10,-4.289 15.157,-4.289 3.273,0 6.449,0.727 9.511,1.809 l 0,-328.9652 C 661.797,48.8477 636.879,43.1133 636.836,43.0781 621.238,39.4727 611.508,23.8984 615.117,8.29297 c 3.074,-13.37109 15.02,-22.46097 28.211,-22.46097 2.164,0 4.36,0.2618 6.567,0.7188 0.281,0.0898 37.875,8.73045 71.699,18.39061 25.656,3.66406 34.801,10.91799 86.371,10.91799 97.265,0 94.207,-193.8474 -36.813,-193.8474 M 2212.51,-1.62109 c 0,-81.39841 -65.97,-147.34391 -147.34,-147.34391 l -1080.596,0 c 4.453,30.344 0.414,62.6955 -13.304,90.8986 -11.543,23.6797 -28.852,41.8867 -49.547,53.64062 -19.649,47.68748 -61.504,78.39848 -113.758,78.39848 -28.887,0 -47.434,-2.1289 -61.504,-4.6875 l 0,386.8198 c 76.234,117.618 274.699,252.54 423.879,252.54 6.53,0 13,-0.286 19.34,-0.825 10.06,-0.918 19.93,-1.355 29.33,-1.355 83.29,0 127.22,34.785 149.46,63.957 34.76,45.711 35.98,102.5 25.48,140.348 -6.24,22.707 -17.81,40.91 -33.11,54.191 -12.84,39.229 -47.25,62.669 -93.32,62.669 -13.44,0 -26.99,-1.83 -38.8,-3.69 -13.08,37.5 -43.33,54.94 -71.94,54.94 -4.44,0 -8.73,-0.58 -12.96,-1.29 20.03,90.25 11.38,184.25 -25.93,270.79 -25.61,59.48 -63.26,111.07 -109.3,152.87 -63.965,85.98 -157.102,146.01 -262.129,168.66 l 0,131.08 1466.049,0 0,-1802.61109 z M 1624.76,2338.61 c -0.06,-82.52 22.93,-176.85 79.67,-290.29 9.93,-19.87 30.05,-31.39 50.86,-31.39 8.53,0 17.16,1.93 25.27,5.96 27.96,14.07 39.43,48.12 25.42,76.17 l -0.06,0 c -51.11,102.35 -67.66,178.27 -67.72,239.55 0.06,83.37 30.6,146.09 67.72,220.32 36.49,73.16 79.72,157.81 79.72,270.99 0,82.57 -22.95,176.89 -79.72,290.28 -13.98,28.07 -48.11,39.4 -76.08,25.39 -28.03,-14.04 -39.39,-48.06 -25.41,-76.11 51.12,-102.33 67.72,-178.24 67.72,-239.56 -0.07,-83.31 -30.54,-146.06 -67.72,-220.27 -36.52,-73.13 -79.73,-157.83 -79.67,-271.04 m -996.678,-1132.39 0,0.04 c -1.187,2.74 -2.16,7.1 -2.16,12.14 -0.098,8.92 3.183,19.55 7.726,25.71 4.852,6.41 7.879,7.69 12.235,7.84 1.828,0 4.367,-0.31 8.176,-1.84 14.82,-5.97 31.711,1.19 37.679,16.07 5.996,14.86 -1.176,31.74 -16.019,37.71 -9.742,3.95 -19.899,6.1 -29.836,6.07 -26.238,0.15 -47.68,-14.91 -59.637,-32.43 -12.328,-17.66 -18.164,-38.35 -18.324,-59.13 0.031,-11.76 2.019,-23.67 6.902,-35.1 4.738,-10.94 15.426,-17.53 26.656,-17.53 3.832,0 7.723,0.75 11.446,2.35 14.703,6.37 21.512,23.44 15.156,38.1 m 241.852,-182.98 c 64.25,48.79 119.66,124.54 119.632,223.52 0.028,39.52 -8.836,82.06 -28.355,126.76 -6.438,14.66 -23.531,21.37 -38.223,14.94 -14.668,-6.43 -21.351,-23.53 -14.922,-38.23 16.684,-38.28 23.5,-72.62 23.532,-103.47 -0.032,-76.12 -41.946,-135.21 -96.887,-177.44 -54.184,-42.02 -122.031,-63.75 -156.023,-63.23 -7.946,-0.07 -13.59,1.2 -15.461,2.02 -14.903,5.88 -31.739,-1.47 -37.622,-16.352 -5.863,-14.883 1.422,-31.731 16.336,-37.61 11.786,-4.578 23.86,-6.003 36.747,-6.062 53.136,0.535 126.25,26.074 191.246,75.154"
         style="fill:#070806;fill-opacity:1;fill-rule:nonzero;stroke:none"
         id="path16" /><path
         d="m 2059.08,-78.2891 c -22.32,0 -42.73,7.168 -59.62,20.7774 -16.79,-13.6094 -37.2,-20.7774 -59.51,-20.7774 -25.95,0 -49.38,9.6875 -67.56,28.0743 -4.44,4.414 -8.41,9.1484 -11.82,14.1289 -30.12,-27.6329 -69.41,-42.2032 -115.04,-42.2032 -55.52,0 -101.37,21.2852 -132.83,61.6368 -0.69,0.8125 -1.31,1.664 -1.98,2.5195 -0.56,-0.75 -1.14,-1.5234 -1.74,-2.2734 -31.72,-40.3985 -77.86,-61.8829 -133.22,-61.8829 -55.4,0 -101.39,21.2852 -132.81,61.5703 -0.65,0.8204 -1.35,1.6993 -1.98,2.586 -0.6,-0.75 -1.2,-1.582 -1.83,-2.332 -31.6,-40.3399 -77.77,-61.8243 -133.15,-61.8243 -55.48,0 -101.4,21.2852 -132.81,61.6368 -25.17,32.0937 -38.01,68.8711 -38.01,109.1523 l 0,188.762 c 0,41.316 12.65,78.172 37.56,109.597 6.06,7.715 12.72,14.746 19.77,21.055 -12.93,16.367 -20.02,36.531 -20.02,57.981 0,26.394 9.59,49.832 27.66,67.898 17.98,18.074 41.47,27.605 67.87,27.605 l 37.98,0 c 40.92,0 77.62,-12.656 108.96,-37.632 9.81,-7.688 18.44,-16.274 26.02,-25.586 0.57,0.703 1.08,1.355 1.64,2.078 31.16,39.844 77.3,61.14 133.15,61.14 55.42,0 101.31,-21.296 132.79,-61.543 0.57,-0.75 1.17,-1.511 1.76,-2.246 0.75,0.879 1.39,1.77 2.08,2.649 31.04,39.844 77.24,61.14 133.14,61.14 45.63,0 84.72,-14.46 114.72,-41.992 3.41,5.11 7.36,9.934 11.83,14.387 18.05,18.074 41.51,27.605 67.87,27.605 22.12,0 42.31,-7.007 59.21,-20.503 16.77,13.496 37.25,20.503 59.92,20.503 25.78,0 49.1,-9.597 67.4,-27.871 18.45,-18.496 28.07,-41.843 28.07,-67.632 0,-21.04 -6.35,-40.375 -18.44,-56.516 12.07,-16.067 18.44,-35.176 18.44,-56.074 l 0,-340.098 c 0,-25.94528 -9.66,-49.2461 -27.99,-67.5586 -18.31,-18.2812 -41.62,-27.9375 -67.48,-27.9375"
         style="fill:#100f0d;fill-opacity:1;fill-rule:nonzero;stroke:none"
         id="path18" /><path
         d="m 1939.95,394.57 c -11,0 -20.07,-3.593 -27.25,-10.754 -7.15,-7.156 -10.75,-15.996 -10.75,-26.511 l 0,-340.098 c 0,-10.55856 3.73,-19.51169 11.1,-26.92575 7.42,-7.43745 16.4,-11.14065 26.9,-11.14065 10.57,0 19.46,3.7032 26.94,11.14065 7.38,7.41406 11.1,16.36719 11.1,26.92575 l 0,340.098 c 0,10.515 -3.84,19.355 -11.47,26.511 -7.7,7.161 -16.5,10.754 -26.57,10.754 m 0,113.352 c -11,0 -20.07,-3.527 -27.25,-10.754 -7.15,-7.148 -10.75,-16.23 -10.75,-27.258 0,-10.523 3.82,-19.363 11.48,-26.543 7.59,-7.168 16.5,-10.722 26.52,-10.722 11.02,0 20.13,3.554 27.28,10.722 7.16,7.18 10.76,16.02 10.76,26.543 0,10.551 -3.72,19.504 -11.1,26.914 -7.48,7.434 -16.37,11.098 -26.94,11.098 m 119.13,-75.277 c 11,0 20.06,3.554 27.28,10.722 7.16,7.18 10.76,16.02 10.76,26.543 0,10.551 -3.73,19.504 -11.14,26.914 -7.41,7.434 -16.43,11.098 -26.9,11.098 -11.03,0 -20.09,-3.527 -27.28,-10.754 -7.15,-7.148 -10.75,-16.23 -10.75,-27.258 0,-10.523 3.81,-19.363 11.47,-26.543 7.67,-7.168 16.5,-10.722 26.56,-10.722 m 0,-38.075 c -11.03,0 -20.09,-3.593 -27.28,-10.754 -7.15,-7.156 -10.75,-15.996 -10.75,-26.511 l 0,-340.098 c 0,-10.55856 3.68,-19.51169 11.13,-26.92575 7.38,-7.43745 16.41,-11.14065 26.9,-11.14065 10.47,0 19.49,3.7032 26.9,11.14065 7.41,7.41406 11.14,16.36719 11.14,26.92575 l 0,340.098 c 0,10.515 -3.85,19.355 -11.51,26.511 -7.6,7.161 -16.53,10.754 -26.53,10.754 m -313.53,113.352 c -38.28,0 -67.71,-13.137 -88.25,-39.445 -16.77,-21.036 -25.13,-45.672 -25.13,-73.907 l 0,-302.0309 c 0,-27.2579 8.64,-51.9336 25.86,-73.9063 20.51,-26.32811 49.7,-39.4922 87.52,-39.4922 37.78,0 67.18,13.41018 88.25,40.1875 16.71,21.0625 25.12,45.4375 25.12,73.211 l 0,38.0269 c 0,10.496 -3.83,19.368 -11.5,26.524 -7.65,7.187 -16.52,10.793 -26.53,10.793 -11.03,0 -20.12,-3.606 -27.28,-10.793 -7.18,-7.156 -10.76,-16.028 -10.76,-26.524 l 0,-38.0269 c 0,-10.5469 -2.38,-18.9258 -7.21,-25.1446 -6.66,-8.1484 -16.75,-12.1718 -30.09,-12.1718 -14.39,0 -24.32,3.5742 -29.81,10.7539 -5.49,7.1601 -8.23,16.2422 -8.23,27.2461 l 0,301.3473 c 0,10.535 2.81,19.5 8.58,26.907 5.79,7.441 15.59,11.168 29.46,11.168 13.34,0 23.43,-4.325 30.09,-12.957 4.83,-6.192 7.21,-14.583 7.21,-25.118 l 0,-37.265 c 0,-10.535 3.67,-19.5 11.11,-26.946 7.42,-7.379 16.41,-11.129 26.93,-11.129 10.49,0 19.46,3.75 26.84,11.129 7.45,7.446 11.19,16.411 11.19,26.946 l 0,37.265 c 0,27.754 -8.63,52.383 -25.81,73.907 -20.6,26.308 -49.78,39.445 -87.56,39.445 m -269.79,0 c -38.25,0 -67.71,-13.137 -88.21,-39.445 -16.81,-21.036 -25.16,-45.672 -25.16,-73.907 l 0,-75.34 c 0,-27.714 8.64,-52.382 25.85,-73.886 20.53,-26.289 49.74,-39.426 87.52,-39.426 13.38,0 23.44,-4.363 30.16,-12.969 4.76,-6.219 7.17,-14.57 7.17,-25.066 l 0,-75.3439 c 0,-10.5469 -2.41,-18.9258 -7.17,-25.1446 -6.72,-8.1484 -16.78,-12.1718 -30.16,-12.1718 -14.37,0 -24.31,3.5742 -29.79,10.7539 -5.46,7.1601 -8.24,16.2422 -8.24,27.2461 l 0,37.3433 c 0,10.496 -3.81,19.368 -11.47,26.524 -7.67,7.187 -16.47,10.793 -26.54,10.793 -10.52,0 -19.39,-3.606 -26.58,-10.793 -7.16,-7.156 -10.75,-16.028 -10.75,-26.524 l 0,-38.0269 c 0,-27.2579 8.64,-51.9336 25.85,-73.9063 20.53,-26.32811 49.74,-39.4922 87.52,-39.4922 37.79,0 67.21,13.41018 88.26,40.1875 16.71,21.0625 25.1,45.4375 25.1,73.211 l 0,75.3439 c 0,27.683 -8.58,52.344 -25.8,73.887 -20.61,26.265 -49.77,39.421 -87.56,39.421 -14.37,0 -24.31,3.731 -29.79,11.133 -5.46,7.442 -8.24,16.629 -8.24,27.625 l 0,74.621 c 0,10.535 2.91,19.5 8.64,26.907 5.72,7.441 15.52,11.168 29.39,11.168 13.38,0 23.44,-4.325 30.16,-12.957 4.76,-6.192 7.17,-14.583 7.17,-25.118 l 0,-37.265 c 0,-10.535 3.69,-19.5 11.13,-26.946 7.4,-7.379 16.37,-11.129 26.9,-11.129 10.5,0 19.49,3.75 26.89,11.129 7.42,7.446 11.11,16.411 11.11,26.946 l 0,37.265 c 0,27.754 -8.58,52.383 -25.8,73.907 -20.61,26.308 -49.77,39.445 -87.56,39.445 m -196.58,-25.07 c -21.06,16.718 -45.45,25.07 -73.19,25.07 l -38.02,0 c -11,0 -20.12,-3.527 -27.27,-10.754 -7.13,-7.148 -10.75,-16.23 -10.75,-27.258 0,-10.523 3.78,-19.363 11.48,-26.543 7.62,-7.168 16.52,-10.722 26.54,-10.722 l 38.02,0 c 10.09,0 18.79,-2.899 26.21,-8.653 7.41,-5.73 11.1,-15.535 11.1,-29.422 l -37.31,0 c -38.23,0 -67.69,-13.152 -88.22,-39.48 -16.82,-20.996 -25.11,-45.664 -25.11,-73.899 l 0,-188.6519 c 0,-27.2579 8.58,-51.9336 25.81,-73.9063 20.59,-26.32811 49.73,-39.4922 87.52,-39.4922 37.77,0 67.23,13.41018 88.23,40.1875 16.75,21.0625 25.12,45.4375 25.12,73.211 l 0,302.0309 c 0,37.825 -13.37,67.215 -40.16,88.282 M 1243.3,92.5391 c 0,-10.5469 -2.4,-18.9258 -7.16,-25.1446 -6.73,-8.1484 -16.78,-12.1718 -30.15,-12.1718 -14.33,0 -24.29,3.5742 -29.75,10.7539 -5.52,7.1601 -8.27,16.2422 -8.27,27.2461 l 0,187.9683 c 0,10.539 2.89,19.512 8.62,26.973 5.75,7.371 15.55,11.066 29.4,11.066 l 37.31,0 0,-226.6909"
         style="fill:#ffffff;fill-opacity:1;fill-rule:nonzero;stroke:none"
         id="path20" /></g></g></svg>